<svg height="1502" width="720" xmlns="http://www.w3.org/2000/svg">
<rect height="1502" fill="#555" width="720"></rect>
<text fill="#7f7" font-family="Courier New" font-size="12" xml:space="preserve">
<tspan x="10" y="26">3 megabytes installed</tspan>
<tspan x="10" y="42"></tspan>
<tspan x="10" y="58">node_modules</tspan>
<tspan x="10" y="74">└─┬ gulp-ruby-sass@2.1.1 </tspan>
<tspan x="10" y="90">  ├── convert-source-map@1.5.0 </tspan>
<tspan x="10" y="106">  ├─┬ cross-spawn@5.1.0 </tspan>
<tspan x="10" y="122">  │ ├─┬ lru-cache@4.0.2 </tspan>
<tspan x="10" y="138">  │ │ ├── pseudomap@1.0.2 </tspan>
<tspan x="10" y="154">  │ │ └── yallist@2.1.2 </tspan>
<tspan x="10" y="170">  │ ├─┬ shebang-command@1.2.0 </tspan>
<tspan x="10" y="186">  │ │ └── shebang-regex@1.0.0 </tspan>
<tspan x="10" y="202">  │ └─┬ which@1.2.14 </tspan>
<tspan x="10" y="218">  │   └── isexe@2.0.0 </tspan>
<tspan x="10" y="234">  ├── dargs@2.1.0 </tspan>
<tspan x="10" y="250">  ├─┬ each-async@1.1.1 </tspan>
<tspan x="10" y="266">  │ ├── onetime@1.1.0 </tspan>
<tspan x="10" y="282">  │ └── set-immediate-shim@1.0.1 </tspan>
<tspan x="10" y="298">  ├── escape-string-regexp@1.0.5 </tspan>
<tspan x="10" y="314">  ├─┬ glob@7.1.1 </tspan>
<tspan x="10" y="330">  │ ├── fs.realpath@1.0.0 </tspan>
<tspan x="10" y="346">  │ ├─┬ inflight@1.0.6 </tspan>
<tspan x="10" y="362">  │ │ └── wrappy@1.0.2 </tspan>
<tspan x="10" y="378">  │ ├── inherits@2.0.3 </tspan>
<tspan x="10" y="394">  │ ├─┬ minimatch@3.0.3 </tspan>
<tspan x="10" y="410">  │ │ └─┬ brace-expansion@1.1.7 </tspan>
<tspan x="10" y="426">  │ │   ├── balanced-match@0.4.2 </tspan>
<tspan x="10" y="442">  │ │   └── concat-map@0.0.1 </tspan>
<tspan x="10" y="458">  │ ├── once@1.4.0 </tspan>
<tspan x="10" y="474">  │ └── path-is-absolute@1.0.1 </tspan>
<tspan x="10" y="490">  ├─┬ glob2base@0.0.12 </tspan>
<tspan x="10" y="506">  │ └── find-index@0.1.1 </tspan>
<tspan x="10" y="522">  ├─┬ gulp-util@3.0.8 </tspan>
<tspan x="10" y="538">  │ ├── array-differ@1.0.0 </tspan>
<tspan x="10" y="554">  │ ├── array-uniq@1.0.3 </tspan>
<tspan x="10" y="570">  │ ├── beeper@1.1.1 </tspan>
<tspan x="10" y="586">  │ ├─┬ chalk@1.1.3 </tspan>
<tspan x="10" y="602">  │ │ ├── ansi-styles@2.2.1 </tspan>
<tspan x="10" y="618">  │ │ ├─┬ has-ansi@2.0.0 </tspan>
<tspan x="10" y="634">  │ │ │ └── ansi-regex@2.1.1 </tspan>
<tspan x="10" y="650">  │ │ ├── strip-ansi@3.0.1 </tspan>
<tspan x="10" y="666">  │ │ └── supports-color@2.0.0 </tspan>
<tspan x="10" y="682">  │ ├── dateformat@2.0.0 </tspan>
<tspan x="10" y="698">  │ ├─┬ fancy-log@1.3.0 </tspan>
<tspan x="10" y="714">  │ │ └── time-stamp@1.0.1 </tspan>
<tspan x="10" y="730">  │ ├─┬ gulplog@1.0.0 </tspan>
<tspan x="10" y="746">  │ │ └── glogg@1.0.0 </tspan>
<tspan x="10" y="762">  │ ├─┬ has-gulplog@0.1.0 </tspan>
<tspan x="10" y="778">  │ │ └── sparkles@1.0.0 </tspan>
<tspan x="10" y="794">  │ ├── lodash._reescape@3.0.0 </tspan>
<tspan x="10" y="810">  │ ├── lodash._reevaluate@3.0.0 </tspan>
<tspan x="10" y="826">  │ ├── lodash._reinterpolate@3.0.0 </tspan>
<tspan x="10" y="842">  │ ├─┬ lodash.template@3.6.2 </tspan>
<tspan x="10" y="858">  │ │ ├── lodash._basecopy@3.0.1 </tspan>
<tspan x="10" y="874">  │ │ ├── lodash._basetostring@3.0.1 </tspan>
<tspan x="10" y="890">  │ │ ├── lodash._basevalues@3.0.0 </tspan>
<tspan x="10" y="906">  │ │ ├── lodash._isiterateecall@3.0.9 </tspan>
<tspan x="10" y="922">  │ │ ├─┬ lodash.escape@3.2.0 </tspan>
<tspan x="10" y="938">  │ │ │ └── lodash._root@3.0.1 </tspan>
<tspan x="10" y="954">  │ │ ├─┬ lodash.keys@3.1.2 </tspan>
<tspan x="10" y="970">  │ │ │ ├── lodash._getnative@3.9.1 </tspan>
<tspan x="10" y="986">  │ │ │ ├── lodash.isarguments@3.1.0 </tspan>
<tspan x="10" y="1002">  │ │ │ └── lodash.isarray@3.0.4 </tspan>
<tspan x="10" y="1018">  │ │ ├── lodash.restparam@3.6.1 </tspan>
<tspan x="10" y="1034">  │ │ └── lodash.templatesettings@3.1.1 </tspan>
<tspan x="10" y="1050">  │ ├── minimist@1.2.0 </tspan>
<tspan x="10" y="1066">  │ ├─┬ multipipe@0.1.2 </tspan>
<tspan x="10" y="1082">  │ │ └─┬ duplexer2@0.0.2 </tspan>
<tspan x="10" y="1098">  │ │   └─┬ readable-stream@1.1.14 </tspan>
<tspan x="10" y="1114">  │ │     ├── isarray@0.0.1 </tspan>
<tspan x="10" y="1130">  │ │     └── string_decoder@0.10.31 </tspan>
<tspan x="10" y="1146">  │ ├── object-assign@3.0.0 </tspan>
<tspan x="10" y="1162">  │ ├── replace-ext@0.0.1 </tspan>
<tspan x="10" y="1178">  │ ├─┬ through2@2.0.3 </tspan>
<tspan x="10" y="1194">  │ │ ├─┬ readable-stream@2.2.9 </tspan>
<tspan x="10" y="1210">  │ │ │ ├── buffer-shims@1.0.0 </tspan>
<tspan x="10" y="1226">  │ │ │ ├── core-util-is@1.0.2 </tspan>
<tspan x="10" y="1242">  │ │ │ ├── isarray@1.0.0 </tspan>
<tspan x="10" y="1258">  │ │ │ ├── process-nextick-args@1.0.7 </tspan>
<tspan x="10" y="1274">  │ │ │ ├── string_decoder@1.0.0 </tspan>
<tspan x="10" y="1290">  │ │ │ └── util-deprecate@1.0.2 </tspan>
<tspan x="10" y="1306">  │ │ └── xtend@4.0.1 </tspan>
<tspan x="10" y="1322">  │ └─┬ vinyl@0.5.3 </tspan>
<tspan x="10" y="1338">  │   ├── clone@1.0.2 </tspan>
<tspan x="10" y="1354">  │   └── clone-stats@0.0.1 </tspan>
<tspan x="10" y="1370">  ├─┬ md5-hex@1.3.0 </tspan>
<tspan x="10" y="1386">  │ └── md5-o-matic@0.1.1 </tspan>
<tspan x="10" y="1402">  ├── object-assign@4.1.1 </tspan>
<tspan x="10" y="1418">  ├── os-tmpdir@1.0.2 </tspan>
<tspan x="10" y="1434">  ├─┬ path-exists@2.1.0 </tspan>
<tspan x="10" y="1450">  │ └─┬ pinkie-promise@2.0.1 </tspan>
<tspan x="10" y="1466">  │   └── pinkie@2.0.4 </tspan>
<tspan x="10" y="1482">  └── rimraf@2.6.1</tspan>
</text>
</svg>
